<?xml version="1.0" encoding="utf-8"?>
<!-- Generator: Adobe Illustrator 16.0.2, SVG Export Plug-In . SVG Version: 6.00 Build 0)  -->
<!DOCTYPE svg PUBLIC "-//W3C//DTD SVG 1.1//EN" "http://www.w3.org/Graphics/SVG/1.1/DTD/svg11.dtd">
<svg version="1.1" id="Шар_1" xmlns="http://www.w3.org/2000/svg" xmlns:xlink="http://www.w3.org/1999/xlink" x="0px" y="0px"
	 width="100px" height="100px" viewBox="0 0 100 100" enable-background="new 0 0 100 100" xml:space="preserve">
<g id="Шар_2">
	<g>
		<path fill="#FFFFFF" d="M0,33.033V5.355C0,2.388,2.388,0,5.356,0h27.678c1.474,0,2.681,1.205,2.681,2.678v8.928
			c0,1.475-1.207,2.678-2.681,2.678h-18.75v18.75c0,1.475-1.205,2.682-2.678,2.682H2.678C1.205,35.715,0,34.508,0,33.033z
			 M64.285,2.678v8.928c0,1.475,1.207,2.678,2.681,2.678h18.75v18.75c0,1.475,1.205,2.682,2.679,2.682h8.928
			c1.474,0,2.678-1.207,2.678-2.682V5.355C100,2.388,97.611,0,94.645,0h-27.68C65.492,0,64.285,1.203,64.285,2.678z M97.322,64.287
			h-8.928c-1.475,0-2.679,1.201-2.679,2.676v18.75h-18.75c-1.474,0-2.681,1.207-2.681,2.681v8.926c0,1.474,1.207,2.681,2.681,2.681
			h27.679c2.967,0,5.355-2.391,5.355-5.355V66.963C100,65.488,98.795,64.287,97.322,64.287z M35.715,97.318v-8.926
			c0-1.475-1.207-2.682-2.681-2.682h-18.75v-18.75c0-1.474-1.205-2.676-2.678-2.676H2.678C1.204,64.285,0,65.487,0,66.961v27.682
			c0,2.966,2.388,5.355,5.356,5.355h27.678C34.508,100,35.715,98.791,35.715,97.318z"/>
		<g>
			<path fill="#FFFFFF" d="M25.985,38.945c0,1.402-1.066,2.534-2.734,2.534c-1.599,0-2.668-1.132-2.633-2.534
				c-0.035-1.467,1.034-2.566,2.666-2.566C24.918,36.379,25.952,37.479,25.985,38.945z M20.75,59.783V43.48h5.066v16.303H20.75z"/>
			<path fill="#FFFFFF" d="M42.117,59.383c-0.898,0.4-2.598,0.732-4.533,0.732c-5.267,0-8.634-3.201-8.634-8.334
				c0-4.767,3.267-8.666,9.334-8.666c1.334,0,2.801,0.232,3.868,0.633l-0.801,3.768c-0.601-0.268-1.499-0.5-2.833-0.5
				c-2.666,0-4.401,1.9-4.366,4.568c0,3,2,4.565,4.466,4.565c1.202,0,2.133-0.2,2.901-0.501L42.117,59.383z"/>
			<path fill="#FFFFFF" d="M60.652,51.447c0,5.969-4.233,8.702-8.602,8.702c-4.767,0-8.434-3.135-8.434-8.401
				s3.467-8.634,8.701-8.634C57.316,43.113,60.652,46.549,60.652,51.447z M48.852,51.615c0,2.801,1.167,4.9,3.332,4.9
				c1.969,0,3.234-1.967,3.234-4.9c0-2.434-0.934-4.902-3.234-4.902C49.75,46.713,48.852,49.215,48.852,51.615z"/>
			<path fill="#FFFFFF" d="M63.784,48.682c0-2.033-0.068-3.768-0.136-5.201h4.4l0.235,2.234h0.099
				c0.667-1.034,2.334-2.602,5.033-2.602c3.334,0,5.834,2.201,5.834,7.002v9.668h-5.066v-9.035c0-2.101-0.732-3.535-2.567-3.535
				c-1.399,0-2.232,0.967-2.566,1.9c-0.132,0.301-0.2,0.801-0.2,1.268v9.402h-5.065V48.682z"/>
		</g>
	</g>
</g>
</svg>
