<!-- Generated by IcoMoon.io -->
<svg version="1.1" xmlns="http://www.w3.org/2000/svg" width="512" height="512" viewBox="0 0 512 512">
<title></title>
<g id="icomoon-ignore">
</g>
<path fill="#98664b" d="M104.32 77.177h-89.409c-8.196 0-14.902 6.706-14.902 14.902v327.834c0 8.196 6.706 14.902 14.902 14.902h89.409c8.196 0 14.902-6.706 14.902-14.902v-327.834c0-8.196-6.706-14.902-14.902-14.902zM89.418 166.587h-59.606v-29.803h59.606v29.803z"></path>
<path fill="#98664b" d="M253.335 77.177h-89.41c-8.196 0-14.902 6.706-14.902 14.902v327.834c0 8.196 6.706 14.902 14.902 14.902h89.409c8.196 0 14.902-6.706 14.902-14.902v-327.834c0-8.196-6.706-14.902-14.902-14.902zM238.433 166.587h-59.606v-29.803h59.606v29.803z"></path>
<path fill="#98664b" d="M356.289 100.219l-79.846 40.231c-7.319 3.687-10.289 12.693-6.603 20.012l134.103 266.154c3.687 7.32 12.693 10.291 20.012 6.603l79.846-40.231c7.319-3.688 10.29-12.695 6.603-20.012l-134.103-266.156c-3.688-7.32-12.695-10.291-20.012-6.603z"></path>
</svg>
