<?xml version="1.0" encoding="utf-8"?>
<!-- Generator: Adobe Illustrator 16.0.0, SVG Export Plug-In . SVG Version: 6.00 Build 0)  -->
<!DOCTYPE svg PUBLIC "-//W3C//DTD SVG 1.1//EN" "http://www.w3.org/Graphics/SVG/1.1/DTD/svg11.dtd">
<svg version="1.1" id="Layer_1" xmlns="http://www.w3.org/2000/svg" xmlns:xlink="http://www.w3.org/1999/xlink" x="0px" y="0px"
	 width="250px" height="40px" viewBox="0 0 250 40" enable-background="new 0 0 250 40" xml:space="preserve">
<g>
	<path fill="#FFFFFF" d="M26.591,0.625v33.737h-4.804V21.207c0.128-4.725,0.259-8.355,0.388-10.894l-0.193-0.098
		c-0.649,1.8-1.748,4.757-3.302,8.868l-2.959,7.659h-4.853l-2.959-7.659c-1.554-4.111-2.654-7.068-3.3-8.868l-0.194,0.098
		c0.194,4.691,0.323,8.323,0.389,10.894v13.154H0V0.625h4.998l5.726,13.689c0.745,1.83,1.57,4.063,2.476,6.7h0.194
		c0.905-2.637,1.73-4.869,2.474-6.7l5.726-13.689H26.591z"/>
	<path fill="#FFFFFF" d="M50.514,29.783v4.58h-17.13V0.625h16.644v4.58H38.286v9.784h10.821v4.483H38.286v10.311H50.514
		L50.514,29.783z"/>
	<path fill="#FFFFFF" d="M78.415,29.783V40h-4.803v-5.637h-16.16V40h-4.804V29.783h1.991c1.165-1.188,2.07-2.926,2.716-5.203
		c0.648-2.281,1.019-4.834,1.117-7.664l0.581-16.291h16.354v29.158H78.415z M70.554,5.206h-6.891l-0.485,13.062
		c-0.194,4.883-1.083,8.721-2.669,11.516h10.045V5.206L70.554,5.206z"/>
	<path fill="#FFFFFF" d="M82.734,0.625h4.9v33.737h-4.9V0.625z"/>
	<path fill="#FFFFFF" d="M106.996,27.564h-8.978l-1.553,6.799h-5.143l8.539-33.738h5.29l8.54,33.738h-5.094L106.996,27.564z
		 M105.977,23.039l-2.135-9.06c-0.485-2.25-0.905-4.66-1.261-7.231h-0.146c-0.422,3.054-0.844,5.462-1.262,7.231l-2.087,9.06
		H105.977z"/>
	<path fill="#FFFFFF" d="M133.732,5.251h-11.354v29.11h-4.902V0.625h16.256V5.251z"/>
	<path fill="#FFFFFF" d="M133.249,30.412c1.069,0,1.894-0.363,2.476-1.086c0.58-0.725,1-1.953,1.262-3.686
		c0.261-1.705,0.51-4.498,0.752-8.387c0.242-3.891,0.508-9.432,0.802-16.629h16.789v33.737h-4.901V5.205h-7.182
		c-0.293,5.688-0.551,10.241-0.775,13.663c-0.229,3.423-0.486,6.048-0.777,7.876c-0.42,2.959-1.316,5.047-2.695,6.271
		c-1.372,1.221-3.289,1.828-5.747,1.828v-4.432H133.249L133.249,30.412z"/>
	<path fill="#FFFFFF" d="M174.738,27.564h-8.977l-1.555,6.799h-5.145l8.541-33.738h5.287l8.543,33.738h-5.097L174.738,27.564z
		 M173.718,23.039l-2.133-9.06c-0.485-2.25-0.907-4.66-1.265-7.231h-0.146c-0.423,3.054-0.842,5.462-1.26,7.231l-2.089,9.06H173.718
		z"/>
	<path fill="#FFFFFF" d="M201.475,5.251H190.12v29.11h-4.899V0.625h16.256v4.627H201.475L201.475,5.251z"/>
	<path fill="#FFFFFF" d="M207.491,31.979c-1.845-2.01-2.765-4.781-2.765-8.313V11.327c0-3.536,0.92-6.306,2.765-8.313
		C209.333,1.004,211.873,0,215.107,0c3.233,0,5.774,1.004,7.619,3.014c1.846,2.009,2.767,4.778,2.767,8.313v12.339
		c0,3.531-0.921,6.303-2.767,8.313c-1.845,2.008-4.386,3.012-7.619,3.012C211.873,34.99,209.332,33.986,207.491,31.979z
		 M219.088,28.529c0.905-1.125,1.357-2.746,1.357-4.865V11.328c0-2.122-0.452-3.744-1.357-4.869
		c-0.904-1.122-2.232-1.686-3.98-1.686c-1.744,0-3.071,0.563-3.979,1.686c-0.906,1.126-1.357,2.747-1.357,4.869v12.338
		c0,2.119,0.449,3.742,1.357,4.865c0.904,1.127,2.234,1.688,3.979,1.688C216.855,30.217,218.184,29.656,219.088,28.529z"/>
	<path fill="#FFFFFF" d="M227.92,30.412c1.068,0,1.895-0.363,2.473-1.086c0.586-0.725,1.006-1.953,1.264-3.686
		c0.26-1.705,0.509-4.498,0.753-8.387c0.241-3.891,0.508-9.432,0.801-16.629H250v33.737h-4.904V5.205h-7.183
		c-0.29,5.688-0.548,10.241-0.776,13.663c-0.227,3.423-0.484,6.048-0.777,7.876c-0.42,2.959-1.317,5.047-2.688,6.271
		c-1.377,1.221-3.295,1.828-5.751,1.828V30.412L227.92,30.412L227.92,30.412z"/>
</g>
</svg>
